<svg width="185" height="41" viewBox="0 0 185 41" fill="none" xmlns="http://www.w3.org/2000/svg">
<path fill-rule="evenodd" clip-rule="evenodd" d="M0 20.794V40.6118H19.562H39.1239V20.794V0.976223H19.562H0V20.794ZM47.9008 9.20381V17.4314H49.0909H50.2809L50.2872 14.4623L50.2933 11.4932L50.8245 10.9209L51.3557 10.3485L54.9492 13.89L58.5428 17.4314H59.8416H61.1404V16.5013V15.5713H60.5573C59.9916 15.5713 59.872 15.4699 56.5464 12.1729C54.6612 10.3039 53.1209 8.71016 53.1238 8.63146C53.1266 8.55276 54.4482 7.13618 56.0607 5.48351C57.6731 3.83084 59.3177 2.14068 59.715 1.72744L60.4374 0.976223L58.8922 0.9891L57.3471 1.00212L53.8512 4.58992L50.3553 8.17773L50.3156 4.5769L50.2759 0.976223H49.0883H47.9008V9.20381ZM63.3718 9.20381V17.4314H69.0991H74.8264V16.3582V15.2851H70.3636H65.9008V12.781V10.277H69.3223H72.7437V9.20381V8.13065H69.3223H65.9008V5.6266V3.12255H70.3636H74.8264V2.04939V0.976223H69.0991H63.3718V9.20381ZM78.0991 9.20381V17.4314H79.2876H80.476L80.5148 11.529L80.5537 5.6266L84.9421 11.5221L89.3305 17.4178L90.1115 17.4245L90.8925 17.4314V9.20381V0.976223H89.7024H88.5123L88.5074 6.80708L88.5024 12.6379L88.2054 12.2948C88.0421 12.1061 86.0587 9.48226 83.798 6.46396L79.6877 0.976223H78.8933H78.0991V9.20381ZM94.909 9.19666V17.4314H96.1718H97.4347L97.4735 11.5837L97.5123 5.73606L101.879 11.5837L106.245 17.4314H107.048H107.851V9.20381V0.976223H106.588H105.325L105.287 6.77302L105.248 12.5698L100.932 6.8088L96.6168 1.04777L95.7629 1.00484L94.909 0.961914V9.19666ZM111.868 9.20381V17.4314H117.521H123.173V16.3582V15.2851H118.711H114.248V12.781V10.277H117.744H121.24V9.20381V8.13065H117.744H114.248V5.6266V3.12255H118.711H123.173V2.04939V0.976223H117.521H111.868V9.20381ZM124.661 1.04576C124.661 1.08397 126.033 3.17134 127.711 5.68426L130.76 10.2535V13.8425V17.4314H132.025H133.289V13.8347V10.2379L136.24 5.786C137.862 3.33733 139.24 1.2511 139.301 1.14979C139.39 1.0037 139.113 0.974076 137.964 1.0067L136.515 1.04777L134.336 4.40105C133.137 6.24546 132.094 7.7715 132.016 7.79253C131.939 7.81342 130.885 6.28839 129.675 4.40348L127.474 0.976223H126.068C125.294 0.976223 124.661 1.00756 124.661 1.04576ZM37.4876 20.8655V39.1809H19.562H1.63636V20.8655V2.5502H19.562H37.4876V20.8655ZM9.37189 12.1371V18.2899H10.2645H11.157V12.8526V7.41521H11.7521H12.3471V12.8526V18.2899H13.2397H14.1322V12.1371V5.98432H11.7521H9.37189V12.1371ZM20.441 12.6341L15.843 19.2838L12.6074 19.2877L9.37189 19.2916V20.0785V20.8655H13.1574H16.9429L21.5797 14.1404L26.2165 7.41521H26.8774C27.3661 7.41521 27.5093 7.46171 27.4271 7.59407C27.3659 7.69251 25.193 10.8376 22.5982 14.5832L17.8805 21.3934L22.547 27.5327C25.1135 30.9093 27.2157 33.7202 27.2184 33.7793C27.221 33.8384 26.8716 33.8839 26.4421 33.8804L25.6611 33.8741L21.3292 27.978L16.9972 22.0818L13.1846 22.0436L9.37189 22.0054V22.7948V23.5842H12.6211H15.8703L20.1433 29.3793L24.4163 35.1744H27.4561C29.128 35.1744 30.4958 35.1416 30.4958 35.1017C30.4958 35.046 20.7756 22.1824 20.2247 21.5091C20.158 21.4276 22.3807 18.0753 25.376 13.7394C28.2737 9.54508 30.6446 6.0842 30.6446 6.04871C30.6446 6.01337 29.3834 5.98432 27.8418 5.98432H25.039L20.441 12.6341ZM47.752 32.5272V40.8979H49.0909H50.4297V32.5272V24.1566H49.0909H47.752V32.5272ZM150.694 32.5272V40.8979H151.959H153.223V32.5272V24.1566H151.959H150.694V32.5272ZM54.2975 32.5272V40.7548H55.5603H56.8231L56.862 34.8726L56.9008 28.9904L61.2892 34.8703L65.6776 40.7504L66.4586 40.7527L67.2396 40.7548V32.5272V24.2997H66.0495H64.8595V30.1032C64.8595 33.7057 64.8062 35.8751 64.719 35.8233C64.6418 35.7774 62.6513 33.1657 60.2955 30.0198L56.0125 24.2997H55.1549H54.2975V32.5272ZM71.2561 32.5272V40.7548H76.1255H80.9949L82.5222 39.2908L84.0495 37.8267V32.5272V27.2278L82.5222 25.7637L80.9949 24.2997H76.1255H71.2561V32.5272ZM87.6198 31.0632V37.8267L89.1471 39.2908L90.6744 40.7548H95.2463H99.8181V32.5272V24.2997H98.628H97.4379V31.3825V38.4654H94.5786H91.7193L90.8596 37.6471L89.9999 36.8289V30.5642V24.2997H88.8098H87.6198V31.0632ZM104.762 25.7687L103.24 27.2378V28.955V30.6722L104.767 32.1363L106.294 33.6004H109.123H111.951L112.802 34.4273C113.63 35.232 113.653 35.2754 113.653 36.0415C113.653 36.8107 113.633 36.8478 112.793 37.6471L111.933 38.4654H109.46H106.987L106.085 37.5711L105.183 36.6768L104.326 37.4987L103.468 38.3208L104.726 39.5377L105.985 40.7548H109.482H112.978L114.506 39.2908L116.033 37.8267V36.1045V34.3822L114.506 32.9182L112.978 31.4541H110.181H107.383L106.501 30.6453C105.631 29.8471 105.62 29.8262 105.62 29.0398C105.62 28.2619 105.64 28.2231 106.471 27.416L107.321 26.5891H109.859H112.398L113.281 27.4476L114.164 28.3061L114.95 27.5598C115.382 27.1493 115.735 26.7453 115.735 26.6622C115.735 26.5789 115.215 26.0133 114.579 25.4053L113.423 24.2997H109.853H106.284L104.762 25.7687ZM117.967 25.3728V26.446H120.793H123.62V33.6004V40.7548H124.884H126.149V33.6004V26.446H128.975H131.802V25.3728V24.2997H124.884H117.967V25.3728ZM134.479 32.5272V40.7548H135.666H136.854L136.894 37.6427L136.934 34.5305L139.051 34.4908L141.168 34.4511L142.808 37.603L144.447 40.7548H145.86H147.273V39.7532V38.7516H146.711H146.15L144.892 36.319L143.635 33.8863L144.859 32.703L146.083 31.5196V29.3737V27.2278L144.555 25.7637L143.028 24.2997H138.754H134.479V32.5272ZM157.24 32.5272V40.7548H162.967H168.694V39.6817V38.6085H164.231H159.768V36.1045V33.6004H163.19H166.611V32.5272V31.4541H163.19H159.768V28.95V26.446H164.231H168.694V25.3728V24.2997H162.967H157.24V32.5272ZM172.819 25.6973L171.372 27.095V28.8836V30.6722L172.899 32.1363L174.426 33.6004H177.222H180.018L180.827 34.3366C181.636 35.0724 181.636 35.0734 181.636 35.9508V36.8289L180.777 37.6471L179.917 38.4654H177.462H175.007L174.124 37.6067L173.24 36.7481L172.38 37.5673L171.519 38.3864L172.744 39.5706L173.969 40.7548H177.545H181.121L182.569 39.3571L184.016 37.9595V36.0804V34.2014L182.474 32.8277L180.932 31.4541H178.193H175.453L174.603 30.6272C173.775 29.8224 173.752 29.7791 173.752 29.013C173.752 28.2437 173.772 28.2067 174.612 27.4074L175.471 26.5891H177.926H180.381L181.264 27.4477L182.148 28.3064L183.009 27.4872L183.869 26.6681L182.644 25.4839L181.42 24.2997H177.843H174.267L172.819 25.6973ZM9.37189 30.0232V35.3175H11.7521H14.1322V30.0232V24.7289H13.2397H12.3471V29.3078V33.8866H11.7521H11.157V29.3078V24.7289H10.2645H9.37189V30.0232ZM80.8186 27.416L81.6694 28.2429V32.5272V36.8116L80.8186 37.6385L79.968 38.4654H76.8021H73.6363V32.5272V26.5891H76.8021H79.968L80.8186 27.416ZM142.843 27.4074L143.702 28.2256V29.4508V30.6761L142.839 31.4979L141.975 32.3198L139.455 32.2804L136.934 32.2411L136.893 29.4151L136.853 26.5891H139.418H141.983L142.843 27.4074Z" fill="#B21030"/>
</svg>
