<svg width="321" height="70" viewBox="0 0 321 70" fill="none" xmlns="http://www.w3.org/2000/svg">
<path fill-rule="evenodd" clip-rule="evenodd" d="M0 34.7617V69.4984H34.1241H68.2482V34.7617V0.0250802H34.1241H0V34.7617ZM83.5586 14.4464V28.8678H85.6346H87.7106L87.7215 23.6636L87.7321 18.4593L88.6588 17.4561L89.5855 16.4529L95.8539 22.6603L102.123 28.8678H104.388H106.654V27.2375V25.6073H105.637C104.65 25.6073 104.441 25.4297 98.6402 19.6507C95.3515 16.3746 92.6647 13.5812 92.6696 13.4432C92.6745 13.3053 94.9799 10.8223 97.7929 7.92547C100.606 5.02866 103.474 2.06614 104.167 1.34181L105.428 0.0250802L102.732 0.0476519L100.037 0.0704761L93.9386 6.35919L87.8403 12.6479L87.7711 6.33637L87.7018 0.0250802H85.6302H83.5586V14.4464ZM110.546 14.4464V28.8678H120.537H130.528V26.9867V25.1057H122.743H114.958V20.7166V16.3275H120.926H126.895V14.4464V12.5654H120.926H114.958V8.17628V3.78717H122.743H130.528V1.90613V0.0250802H120.537H110.546V14.4464ZM136.237 14.4464V28.8678H138.31H140.383L140.451 18.522L140.519 8.17628L148.174 18.51L155.829 28.844L157.191 28.8557L158.554 28.8678V14.4464V0.0250802H156.478H154.402L154.393 10.2454L154.384 20.4658L153.866 19.8643C153.582 19.5335 150.122 14.9345 146.178 9.644L139.008 0.0250802H137.622H136.237V14.4464ZM165.56 14.4339V28.8678H167.763H169.966L170.034 18.6178L170.101 8.36815L177.718 18.6178L185.335 28.8678H186.736H188.137V14.4464V0.0250802H185.934H183.731L183.663 10.1857L183.595 20.3464L176.067 10.2484L168.539 0.150483L167.05 0.0752407L165.56 0V14.4339ZM195.143 14.4464V28.8678H205.004H214.865V26.9867V25.1057H207.08H199.295V20.7166V16.3275H205.393H211.492V14.4464V12.5654H205.393H199.295V8.17628V3.78717H207.08H214.865V1.90613V0.0250802H205.004H195.143V14.4464ZM217.46 0.146972C217.46 0.213937 219.854 3.8727 222.78 8.27735L228.099 16.2863V22.5771V28.8678H230.305H232.511V22.5635V16.259L237.658 8.45568C240.488 4.16363 242.892 0.506878 242.999 0.329307C243.153 0.0732344 242.669 0.0213175 240.666 0.0785013L238.139 0.150483L234.337 6.02812C232.246 9.26102 230.425 11.9359 230.291 11.9727C230.156 12.0093 228.318 9.33626 226.206 6.03239L222.367 0.0250802H219.914C218.564 0.0250802 217.46 0.0800068 217.46 0.146972ZM65.3937 34.8871V66.9903H34.1241H2.85449V34.8871V2.78395H34.1241H65.3937V34.8871ZM16.3484 19.588V30.3726H17.9054H19.4624V20.842V11.3114H20.5004H21.5384V20.842V30.3726H23.0954H24.6524V19.588V8.8033H20.5004H16.3484V19.588ZM35.6575 20.459L27.6366 32.1147L21.9925 32.1215L16.3484 32.1283V33.5077V34.8871H22.9519H29.5554L37.6439 23.0992L45.7323 11.3114H46.8852C47.7377 11.3114 47.9876 11.3929 47.8441 11.6249C47.7374 11.7974 43.9469 17.3101 39.4205 23.8755L31.191 35.8124L39.3312 46.5734C43.8083 52.492 47.4753 57.4188 47.48 57.5224C47.4846 57.626 46.8751 57.7057 46.1259 57.6997L44.7635 57.6887L37.2069 47.354L29.6501 37.019L22.9994 36.952L16.3484 36.8851V38.2688V39.6525H22.0164H27.6844L35.1382 49.8101L42.5921 59.9678H47.8947C50.8112 59.9678 53.1973 59.9103 53.1973 59.8403C53.1973 59.7428 36.2411 37.1953 35.2802 36.0153C35.1639 35.8723 39.0411 29.9964 44.2661 22.3965C49.3209 15.0446 53.4568 8.97836 53.4568 8.91616C53.4568 8.85421 51.2567 8.8033 48.5675 8.8033H43.6783L35.6575 20.459ZM83.2991 55.3278V70H85.6346H87.9701V55.3278V40.6557H85.6346H83.2991V55.3278ZM262.872 55.3278V70H265.078H267.284V55.3278V40.6557H265.078H262.872V55.3278ZM94.7171 55.3278V69.7492H96.9199H99.1228L99.1906 59.4388L99.2583 49.1284L106.914 59.4348L114.569 69.7414L115.931 69.7454L117.293 69.7492V55.3278V40.9065H115.217H113.141V51.0789C113.141 57.3935 113.049 61.196 112.897 61.1052C112.762 61.0247 109.289 56.4469 105.18 50.9327L97.7088 40.9065H96.2128H94.7171V55.3278ZM124.3 55.3278V69.7492H132.794H141.288L143.953 67.1829L146.617 64.6167V55.3278V46.039L143.953 43.4727L141.288 40.9065H132.794H124.3V55.3278ZM152.845 52.7616V64.6167L155.509 67.1829L158.173 69.7492H166.149H174.124V55.3278V40.9065H172.048H169.972V53.3214V65.7363H164.984H159.996L158.496 64.3019L156.997 62.8678V51.887V40.9065H154.921H152.845V52.7616ZM182.747 43.4815L180.092 46.0565V49.0665V52.0764L182.756 54.6426L185.421 57.2089H190.355H195.289L196.773 58.6583C198.217 60.0688 198.257 60.1448 198.257 61.4876C198.257 62.836 198.223 62.9009 196.757 64.3019L195.258 65.7363H190.944H186.629L185.056 64.1688L183.483 62.6012L181.987 64.0418L180.49 65.4827L182.686 67.6158L184.881 69.7492H190.981H197.081L199.745 67.1829L202.409 64.6167V61.598V58.5793L199.745 56.013L197.081 53.4468H192.2H187.32L185.782 52.0292C184.264 50.63 184.244 50.5934 184.244 49.2149C184.244 47.8516 184.28 47.7836 185.728 46.3688L187.212 44.9194H191.64H196.068L197.608 46.4242L199.149 47.9291L200.52 46.6209C201.273 45.9013 201.89 45.1933 201.89 45.0475C201.89 44.9016 200.983 43.9101 199.873 42.8445L197.856 40.9065H191.629H185.403L182.747 43.4815ZM205.783 42.7875V44.6686H210.713H215.643V57.2089V69.7492H217.849H220.055V57.2089V44.6686H224.985H229.916V42.7875V40.9065H217.849H205.783V42.7875ZM234.587 55.3278V69.7492H236.658H238.729L238.799 64.2942L238.869 58.8391L242.562 58.7696L246.255 58.6999L249.115 64.2247L251.976 69.7492H254.44H256.904V67.9935V66.2379H255.924H254.945L252.752 61.974L250.558 57.71L252.693 55.6358L254.828 53.5617V49.8003V46.039L252.164 43.4727L249.499 40.9065H242.043H234.587V55.3278ZM274.29 55.3278V69.7492H284.281H294.272V67.8681V65.9871H286.487H278.702V61.598V57.2089H284.67H290.639V55.3278V53.4468H284.67H278.702V49.0577V44.6686H286.487H294.272V42.7875V40.9065H284.281H274.29V55.3278ZM301.468 43.3564L298.943 45.8062V48.9413V52.0764L301.607 54.6426L304.271 57.2089H309.148H314.025L315.436 58.4993C316.847 59.7889 316.848 59.7907 316.848 61.3286V62.8678L315.348 64.3019L313.849 65.7363H309.566H305.284L303.743 64.2312L302.202 62.7261L300.701 64.162L299.2 65.5978L301.336 67.6735L303.472 69.7492H309.711H315.95L318.475 67.2993L321 64.8494V61.5559V58.2623L318.31 55.8545L315.62 53.4468H310.841H306.062L304.579 51.9974C303.135 50.5869 303.095 50.5109 303.095 49.168C303.095 47.8197 303.129 47.7547 304.594 46.3537L306.094 44.9194H310.376H314.659L316.2 46.4245L317.741 47.9296L319.242 46.4937L320.743 45.0578L318.607 42.9822L316.47 40.9065H310.232H303.993L301.468 43.3564ZM16.3484 50.9387V60.2186H20.5004H24.6524V50.9387V41.6589H23.0954H21.5384V49.6847V57.7105H20.5004H19.4624V49.6847V41.6589H17.9054H16.3484V50.9387ZM140.981 46.3688L142.465 47.8182V55.3278V62.8375L140.981 64.2869L139.497 65.7363H133.974H128.452V55.3278V44.9194H133.974H139.497L140.981 46.3688ZM249.176 46.3537L250.676 47.7879V49.9355V52.0832L249.17 53.5235L247.663 54.9642L243.266 54.8952L238.869 54.8262L238.798 49.8728L238.728 44.9194H243.202H247.677L249.176 46.3537Z" fill="#8B2C3D"/>
</svg>
