<svg width="40" height="40" viewBox="0 0 40 40" fill="none" xmlns="http://www.w3.org/2000/svg">
<path fill-rule="evenodd" clip-rule="evenodd" d="M0 19.832V39.6498H19.562H39.1239V19.832V0.0142822H19.562H0V19.832ZM37.4876 19.9036V38.2189H19.562H1.63636V19.9036V1.58826H19.562H37.4876V19.9036ZM9.37189 11.1752V17.328H10.2645H11.157V11.8906V6.45327H11.7521H12.3471V11.8906V17.328H13.2397H14.1322V11.1752V5.02238H11.7521H9.37189V11.1752ZM20.441 11.6721L15.843 18.3219L12.6074 18.3258L9.37189 18.3296V19.1166V19.9036H13.1574H16.9429L21.5797 13.1784L26.2165 6.45327H26.8774C27.3661 6.45327 27.5093 6.49977 27.4271 6.63213C27.3659 6.73057 25.193 9.87566 22.5982 13.6213L17.8805 20.4314L22.547 26.5708C25.1135 29.9474 27.2157 32.7582 27.2184 32.8173C27.221 32.8764 26.8716 32.9219 26.4421 32.9185L25.6611 32.9122L21.3292 27.0161L16.9972 21.1198L13.1846 21.0816L9.37189 21.0434V21.8329V22.6223H12.6211H15.8703L20.1433 28.4174L24.4163 34.2124H27.4561C29.128 34.2124 30.4958 34.1797 30.4958 34.1398C30.4958 34.0841 20.7756 21.2204 20.2247 20.5472C20.158 20.4656 22.3807 17.1134 25.376 12.7775C28.2737 8.58314 30.6446 5.12226 30.6446 5.08677C30.6446 5.05143 29.3834 5.02238 27.8418 5.02238H25.039L20.441 11.6721ZM9.37189 29.0613V34.3555H11.7521H14.1322V29.0613V23.767H13.2397H12.3471V28.3458V32.9246H11.7521H11.157V28.3458V23.767H10.2645H9.37189V29.0613Z" fill="#DC143C"/>
</svg>
